<svg width="48" height="48" viewBox="0 0 48 48" fill="none" xmlns="http://www.w3.org/2000/svg">
<path d="M15.0362 33.1634C14.7952 32.9998 14.7445 32.6656 14.9262 32.4378L20.0688 25.9933C20.2916 25.7142 20.1583 25.2983 19.8149 25.2006L12.4059 23.0926C12.1309 23.0144 11.9773 22.7219 12.0692 22.4511L13.3607 18.6427C13.4527 18.3713 13.7536 18.2327 14.0197 18.339L21.277 21.2385C21.6162 21.374 21.9815 21.1119 21.9617 20.7472L21.5166 12.527C21.5011 12.2407 21.7291 12 22.0159 12H26.227C26.5146 12 26.743 12.2421 26.7261 12.5293L26.2331 20.9312C26.2116 21.2977 26.5792 21.5616 26.9196 21.424L34.0021 18.5621C34.2704 18.4537 34.5744 18.595 34.6645 18.8699L35.9376 22.7528C36.0264 23.0233 35.8716 23.3132 35.5974 23.39L28.0502 25.5041C27.7065 25.6003 27.5715 26.0153 27.7927 26.2954L32.7582 32.5821C32.936 32.8072 32.8883 33.1355 32.6537 33.3008L29.2527 35.6962C29.0183 35.8613 28.6934 35.7959 28.5412 35.553L24.242 28.6945C24.0474 28.384 23.5961 28.3814 23.3979 28.6895L19.1307 35.3232C18.9787 35.5596 18.6619 35.6242 18.4294 35.4665L15.0362 33.1634Z" fill="white"/>
</svg>
