<svg width="480" height="480" viewBox="0 0 480 480" fill="none" xmlns="http://www.w3.org/2000/svg">
<rect width="480" height="480" rx="80" fill="#F1C21B"/>
<path d="M352.095 252.804C352.095 255.129 351.398 257.371 350.079 259.288C348.76 261.204 346.915 262.659 344.742 263.494L143.674 340.723C139.833 342.199 136.455 341.879 133.346 339.748C130.041 337.481 127.907 333.648 127.907 329.981C127.907 327.865 128.596 325.804 130.015 323.68L161.12 277.084C164.624 271.837 167.327 266.115 169.158 260.079C170.989 254.043 171.916 247.783 171.916 241.476L171.916 238.526C171.916 232.219 170.987 225.961 169.158 219.923C167.327 213.888 164.624 208.165 161.12 202.918L130.013 156.319C128.595 154.195 127.905 152.134 127.905 150.019C127.905 146.352 130.04 142.516 133.345 140.251C136.452 138.12 139.83 137.802 143.674 139.277L344.742 216.509C346.915 217.344 348.76 218.797 350.079 220.715C351.398 222.632 352.095 224.874 352.095 227.199L352.095 252.802M378.5 252.804L378.5 227.2C378.5 211.55 368.849 197.516 354.222 191.898L153.152 114.665C126.311 104.355 101.5 125.613 101.5 150.02C101.5 156.958 103.507 164.154 108.043 170.949L139.15 217.547C143.297 223.76 145.51 231.06 145.51 238.527L145.51 241.478C145.51 248.945 143.297 256.245 139.15 262.458L108.044 309.052C103.507 315.848 101.501 323.04 101.501 329.981C101.501 354.384 126.314 375.644 153.153 365.335L354.222 288.105C368.849 282.487 378.5 268.453 378.5 252.804Z" fill="#FDDC69"/>
</svg>
