<svg width="480" height="480" viewBox="0 0 480 480" fill="none" xmlns="http://www.w3.org/2000/svg">
<rect width="480" height="480" rx="128" fill="#012749"/>
<path d="M150.358 331.634C147.948 329.998 147.441 326.656 149.258 324.378L200.685 259.933C202.912 257.142 201.58 252.983 198.145 252.006L124.055 230.926C121.305 230.144 119.77 227.219 120.688 224.511L133.603 186.427C134.523 183.713 137.532 182.327 140.193 183.39L212.766 212.385C216.158 213.74 219.811 211.119 219.614 207.472L215.162 125.27C215.007 122.407 217.287 120 220.155 120H262.266C265.142 120 267.426 122.421 267.257 125.293L262.327 209.312C262.112 212.977 265.788 215.616 269.192 214.24L340.017 185.621C342.7 184.537 345.74 185.95 346.641 188.699L359.373 227.528C360.26 230.233 358.712 233.132 355.97 233.9L280.498 255.041C277.062 256.003 275.711 260.153 277.923 262.954L327.578 325.821C329.356 328.072 328.879 331.355 326.533 333.008L292.523 356.962C290.179 358.613 286.93 357.959 285.408 355.53L242.416 286.945C240.471 283.84 235.957 283.814 233.975 286.895L191.303 353.232C189.783 355.595 186.615 356.242 184.29 354.665L150.358 331.634Z" fill="#B8D3FF"/>
</svg>
